<?xml version="1.0" standalone="no"?>
<!DOCTYPE svg PUBLIC "-//W3C//DTD SVG 20010904//EN"
 "http://www.w3.org/TR/2001/REC-SVG-20010904/DTD/svg10.dtd">
<svg version="1.0" xmlns="http://www.w3.org/2000/svg"
 width="800.000000pt" height="600.000000pt" viewBox="0 0 800.000000 600.000000"
 preserveAspectRatio="xMidYMid meet">

<g transform="translate(0.000000,600.000000) scale(0.100000,-0.100000)"
fill="#000000" stroke="none">
<path d="M1835 5490 c-314 -36 -616 -221 -798 -489 -134 -198 -195 -421 -184
-670 11 -253 102 -485 267 -681 l29 -35 -24 -155 c-13 -85 -23 -155 -22 -157
1 -1 65 23 142 53 76 30 144 54 151 54 6 0 51 -19 100 -41 144 -67 253 -91
434 -96 179 -6 281 11 437 69 249 94 489 317 603 560 282 602 -11 1306 -637
1531 -141 51 -344 74 -498 57z m78 -517 c18 -21 77 -166 77 -191 0 -24 -19
-42 -46 -42 -29 0 -36 10 -78 114 -35 83 -36 90 -21 112 18 28 46 31 68 7z
m205 -49 c17 -12 22 -25 22 -59 0 -67 -14 -95 -48 -95 -40 0 -52 17 -52 77 0
40 5 58 20 73 24 24 29 24 58 4z m-335 -95 c12 -6 39 -27 60 -47 42 -41 50
-84 18 -102 -31 -16 -39 -13 -91 36 -54 51 -66 94 -32 113 22 13 19 13 45 0z
m642 -68 c148 -68 187 -303 69 -413 -41 -39 -232 -140 -256 -136 -29 4 -48 38
-38 65 6 13 45 41 104 73 133 72 165 114 153 202 -7 51 -32 87 -78 111 -27 15
-49 17 -107 13 -57 -3 -75 -1 -88 11 -22 22 -14 65 16 80 39 20 177 16 225 -6z
m-551 -203 c7 -12 7 -27 -2 -51 -27 -74 -11 -147 42 -196 43 -41 30 -91 -25
-91 -31 0 -92 62 -115 116 -28 67 -15 178 29 232 14 17 57 11 71 -10z m182
-64 c49 -50 74 -107 74 -175 0 -90 -29 -134 -202 -306 -143 -141 -157 -152
-212 -168 -50 -15 -68 -16 -112 -6 -131 30 -217 157 -193 286 12 66 22 80 127
188 94 95 116 109 140 85 25 -25 10 -53 -72 -137 -96 -99 -117 -144 -98 -210
13 -42 54 -88 90 -102 31 -12 85 -11 118 2 31 11 240 212 285 273 48 64 34
171 -27 211 -29 19 -33 69 -6 84 30 18 50 12 88 -25z"/>
<path d="M3870 3153 c-71 -36 -70 -24 -70 -628 0 -297 -5 -580 -10 -630 -15
-135 -42 -213 -88 -258 -65 -64 -90 -67 -480 -67 -383 0 -396 -2 -426 -65 -20
-41 -20 -58 -1 -95 30 -59 37 -60 302 -60 l243 0 0 -176 0 -175 -47 -20 c-27
-11 -131 -57 -233 -102 -181 -80 -185 -83 -185 -112 0 -50 33 -43 255 55 112
49 206 90 207 90 2 0 3 -36 3 -79 0 -80 12 -111 44 -111 27 0 36 26 36 102 0
56 4 78 13 78 7 0 100 -38 207 -85 212 -93 245 -100 245 -50 0 29 -4 31 -230
131 l-230 101 -3 176 -2 177 37 0 c21 0 82 7 135 15 268 40 382 179 418 507 6
56 10 338 10 663 l0 567 -29 29 c-16 16 -36 29 -44 29 -9 0 -21 2 -29 5 -7 3
-29 -3 -48 -12z"/>
<path d="M5993 3156 c-127 -41 -207 -141 -250 -311 -25 -102 -26 -479 0 -580
37 -144 104 -243 199 -291 95 -48 259 -51 360 -7 91 41 169 147 203 278 41
158 41 453 0 610 -37 140 -104 233 -204 282 -49 24 -70 28 -161 30 -68 2 -120
-2 -147 -11z m245 -92 c78 -32 136 -113 170 -237 24 -89 24 -454 -1 -544 -50
-186 -159 -276 -312 -260 -127 13 -213 102 -250 259 -36 152 -28 448 16 583
23 69 68 139 112 174 61 50 179 61 265 25z"/>
<path d="M5031 2758 c-274 -391 -281 -402 -281 -450 l0 -48 275 0 275 0 0
-150 0 -150 55 0 55 0 0 150 0 150 85 0 85 0 0 45 0 45 -85 0 -85 0 0 405 0
405 -49 0 -49 0 -281 -402z m266 -405 c-2 -2 -103 -2 -224 -1 l-221 3 222 320
221 320 3 -319 c1 -176 1 -321 -1 -323z"/>
<path d="M6961 2759 c-276 -393 -281 -401 -281 -450 l0 -49 275 0 275 0 0
-150 0 -150 55 0 55 0 0 150 0 150 85 0 85 0 0 45 0 45 -85 0 -85 0 0 405 0
405 -49 0 -50 0 -280 -401z m266 -406 c-2 -2 -103 -2 -225 -1 l-220 3 221 321
222 320 3 -319 c1 -176 1 -322 -1 -324z"/>
<path d="M478 3059 c-10 -5 -18 -17 -18 -26 0 -26 299 -600 316 -607 9 -3 170
-6 359 -6 369 0 371 0 363 52 l-3 23 -340 5 -340 5 -141 274 c-126 242 -155
291 -174 291 -3 -1 -13 -5 -22 -11z"/>
<path d="M1695 2907 c-162 -77 -195 -293 -64 -414 120 -110 318 -71 395 79 39
75 25 190 -31 264 -66 86 -202 118 -300 71z"/>
<path d="M2215 2761 c-65 -17 -109 -57 -129 -116 -16 -44 -10 -1166 5 -1228
18 -69 105 -84 143 -25 12 19 17 110 25 511 6 269 13 493 17 498 7 12 170 11
274 -1 300 -37 532 -183 675 -426 l24 -41 -151 -6 c-83 -4 -242 -7 -354 -7
-119 0 -214 -4 -231 -11 -39 -15 -81 -56 -93 -94 -15 -45 101 -1209 125 -1255
34 -66 131 -76 179 -19 33 39 33 56 1 609 -14 234 -25 435 -25 448 l0 22 418
0 c270 0 431 4 456 11 84 23 128 108 108 206 -6 28 -36 105 -66 169 -196 412
-484 645 -908 735 -101 22 -437 35 -493 20z"/>
<path d="M560 2360 c-20 -20 -20 -33 -20 -919 l0 -900 22 -15 c28 -20 58 -20
86 0 l22 15 0 849 0 850 666 2 c646 3 666 4 680 22 20 28 17 73 -6 96 -20 20
-33 20 -725 20 -692 0 -705 0 -725 -20z"/>
<path d="M5260 1658 c-28 -46 -6 -49 38 -4 l37 36 -28 0 c-20 0 -32 -9 -47
-32z"/>
<path d="M4810 1485 l0 -195 25 0 c24 0 24 2 27 83 l3 82 85 6 c47 3 93 9 103
13 40 19 59 98 36 150 -19 42 -65 56 -178 56 l-101 0 0 -195z m226 130 c20
-27 17 -72 -6 -95 -16 -16 -33 -20 -95 -20 l-75 0 0 71 0 71 81 -4 c66 -3 83
-7 95 -23z"/>
<path d="M5770 1655 c0 -20 5 -25 25 -25 20 0 25 5 25 25 0 20 -5 25 -25 25
-20 0 -25 -5 -25 -25z"/>
<path d="M6660 1484 l0 -195 23 3 c21 3 22 7 27 155 l5 152 95 -154 c85 -138
98 -154 123 -155 l27 0 0 195 c0 188 -1 195 -20 195 -19 0 -20 -7 -20 -157 0
-133 -2 -155 -14 -143 -7 8 -52 79 -101 158 -80 130 -89 142 -116 142 l-29 0
0 -196z"/>
<path d="M5221 1569 c-47 -19 -71 -79 -31 -79 11 0 20 4 20 9 0 21 34 41 69
41 44 0 64 -18 59 -52 -3 -20 -12 -24 -71 -34 -82 -13 -111 -37 -111 -89 0
-75 91 -107 162 -57 29 21 30 21 35 2 6 -25 67 -29 67 -5 0 8 -7 15 -15 15
-12 0 -15 17 -15 94 0 52 -4 106 -9 119 -16 40 -101 60 -160 36z m102 -221
c-28 -27 -85 -34 -107 -13 -38 38 -7 74 79 92 l40 8 3 -34 c2 -23 -3 -40 -15
-53z"/>
<path d="M5514 1561 c-78 -47 -85 -206 -11 -251 38 -24 78 -25 117 -5 l30 16
0 -36 c0 -48 -29 -75 -80 -75 -29 0 -43 5 -52 20 -13 21 -58 28 -58 10 0 -21
49 -59 84 -66 47 -8 102 12 130 49 19 26 21 45 25 188 3 156 3 159 -18 159
-12 0 -21 -6 -21 -15 0 -20 -7 -19 -37 5 -32 25 -69 25 -109 1z m112 -44 c23
-20 27 -31 27 -81 0 -49 -4 -62 -26 -84 -33 -33 -83 -34 -109 -3 -13 17 -18
40 -18 83 0 49 4 63 25 83 30 31 66 32 101 2z"/>
<path d="M5990 1573 c-8 -3 -23 -12 -32 -21 -16 -14 -18 -13 -18 1 0 11 -8 17
-25 17 l-25 0 0 -140 0 -140 25 0 25 0 0 100 c0 94 2 103 25 125 31 32 78 33
99 3 12 -17 16 -48 16 -125 0 -96 1 -103 20 -103 19 0 20 7 20 120 0 115 -1
122 -25 145 -23 24 -68 32 -105 18z"/>
<path d="M6254 1570 c-24 -9 -54 -47 -54 -67 0 -7 9 -13 20 -13 11 0 20 4 20
9 0 21 34 41 68 41 41 0 56 -8 64 -30 11 -32 -10 -48 -72 -55 -79 -9 -112 -35
-112 -89 0 -54 29 -81 86 -80 27 1 55 9 74 22 29 21 30 21 35 2 6 -25 67 -29
67 -5 0 8 -7 15 -15 15 -12 0 -15 18 -15 99 0 55 -3 107 -6 116 -15 37 -106
57 -160 35z m116 -174 c0 -60 -84 -101 -124 -60 -35 35 -12 72 52 85 69 13 72
12 72 -25z"/>
<path d="M7100 1567 c-13 -7 -35 -28 -48 -47 -21 -30 -23 -44 -20 -104 3 -62
7 -71 35 -97 64 -56 155 -43 197 30 22 39 26 133 7 169 -28 53 -115 78 -171
49z m116 -48 c14 -16 19 -36 19 -84 0 -53 -4 -68 -24 -89 -30 -31 -69 -34
-104 -6 -44 35 -48 134 -6 179 27 29 89 29 115 0z"/>
<path d="M5770 1430 l0 -140 25 0 25 0 0 140 0 140 -25 0 -25 0 0 -140z"/>
<path d="M4817 1033 c-4 -3 -7 -91 -7 -195 l0 -188 145 0 c138 0 145 1 145 20
0 19 -7 20 -120 20 l-120 0 0 70 0 70 110 0 c103 0 110 1 110 20 0 19 -7 20
-110 20 l-110 0 0 60 0 60 115 0 115 0 0 25 0 25 -133 0 c-74 0 -137 -3 -140
-7z"/>
<path d="M7170 969 l0 -70 -22 15 c-29 20 -97 20 -126 0 -12 -8 -29 -28 -37
-44 -19 -37 -19 -133 0 -170 30 -58 110 -77 159 -39 21 17 26 18 26 5 0 -9 8
-16 20 -16 19 0 20 7 20 195 0 188 -1 195 -20 195 -18 0 -20 -7 -20 -71z m-29
-98 c25 -25 29 -37 29 -84 0 -70 -26 -107 -76 -107 -43 0 -71 27 -80 76 -13
71 30 143 84 144 8 0 27 -13 43 -29z"/>
<path d="M6360 970 c0 -33 -3 -40 -20 -40 -13 0 -20 -7 -20 -20 0 -13 7 -20
20 -20 19 0 20 -7 20 -107 0 -60 4 -113 8 -119 10 -16 46 -26 66 -18 22 9 20
34 -3 34 -26 0 -31 18 -31 121 0 88 0 89 25 89 18 0 25 5 25 20 0 15 -7 20
-25 20 -22 0 -25 4 -25 40 0 33 -3 40 -20 40 -17 0 -20 -7 -20 -40z"/>
<path d="M5280 932 c-14 -2 -35 -13 -47 -25 l-23 -20 0 21 c0 15 -6 22 -20 22
-19 0 -20 -7 -20 -140 0 -133 1 -140 20 -140 19 0 20 7 20 96 0 92 1 97 29
125 34 34 63 37 91 9 17 -17 20 -33 20 -125 0 -98 1 -105 20 -105 19 0 20 7
20 118 0 79 -4 124 -12 135 -15 20 -63 34 -98 29z"/>
<path d="M5535 931 c-70 -31 -105 -135 -71 -214 19 -45 48 -68 93 -74 51 -6
89 10 113 49 26 43 25 48 -5 48 -14 0 -25 -6 -25 -13 0 -23 -35 -47 -68 -47
-42 0 -72 39 -72 96 0 111 68 160 130 94 34 -37 65 -41 55 -7 -17 56 -96 92
-150 68z"/>
<path d="M5810 929 c-91 -37 -118 -190 -45 -259 29 -28 107 -37 145 -18 44 24
70 75 70 137 0 69 -26 116 -75 137 -39 16 -60 17 -95 3z m93 -49 c30 -24 42
-76 27 -129 -14 -53 -34 -71 -79 -71 -57 0 -76 27 -76 107 0 59 3 67 28 89 34
29 66 31 100 4z"/>
<path d="M6160 932 c-14 -2 -35 -13 -47 -25 l-23 -20 0 21 c0 15 -6 22 -20 22
-19 0 -20 -7 -20 -140 0 -133 1 -140 20 -140 19 0 20 7 20 96 0 92 1 97 29
125 34 34 63 37 91 9 17 -17 20 -33 20 -125 0 -98 1 -105 20 -105 19 0 20 7
20 118 0 79 -4 124 -12 135 -15 20 -63 34 -98 29z"/>
<path d="M6592 925 c-17 -8 -32 -19 -32 -25 0 -5 -4 -10 -10 -10 -5 0 -10 9
-10 20 0 13 -7 20 -20 20 -19 0 -20 -7 -20 -140 l0 -140 25 0 c25 0 25 0 25
99 0 96 1 100 26 120 15 12 35 21 45 21 12 0 19 7 19 19 0 28 -10 31 -48 16z"/>
<path d="M6753 932 c-54 -16 -89 -82 -43 -82 11 0 20 7 20 15 0 33 86 48 114
19 18 -17 21 -50 6 -59 -5 -3 -38 -11 -72 -16 -76 -12 -108 -38 -108 -86 0
-73 85 -107 156 -64 31 19 32 19 48 0 21 -25 56 -25 56 0 0 10 -7 21 -15 25
-12 4 -15 26 -15 104 0 113 -7 129 -65 142 -45 11 -51 11 -82 2z m107 -172 c0
-42 -39 -80 -83 -80 -18 0 -38 5 -45 12 -16 16 -15 53 1 66 10 9 65 23 120 31
4 0 7 -13 7 -29z"/>
<path d="M7354 929 c-35 -10 -48 -23 -58 -56 -10 -32 20 -31 50 2 13 14 34 25
49 25 76 0 101 -74 29 -85 -19 -3 -50 -8 -70 -11 -49 -7 -74 -35 -74 -83 0
-55 37 -85 98 -78 24 2 52 13 63 23 19 17 20 17 35 -5 10 -14 24 -21 37 -19
25 4 37 38 13 38 -14 0 -16 16 -16 98 0 113 -10 136 -68 152 -42 11 -46 11
-88 -1z m112 -176 c-9 -49 -38 -73 -87 -73 -71 0 -79 71 -11 89 107 27 105 28
98 -16z"/>
<path d="M2815 667 c-38 -32 -38 -92 0 -124 55 -48 139 -11 139 62 0 73 -84
110 -139 62z"/>
<path d="M3325 665 c-52 -51 -16 -145 55 -145 37 0 90 47 90 80 0 78 -91 119
-145 65z"/>
<path d="M3839 677 c-46 -35 -50 -88 -10 -128 57 -56 141 -23 141 56 0 66 -81
111 -131 72z"/>
</g>
</svg>
